<svg width="20" height="20" viewBox="0 0 24 24" fill="#555333" xmlns="http://www.w3.org/2000/svg">
<path d="M23.631 22.1497L21.4266 23.453C20.0075 24.3283 13.9603 25.3123 5.73317 16.3855C-2.19813 7.79123 0.0697905 3.02527 1.13364 1.92618L2.9642 0.222036C3.3958 -0.107623 4.04697 -0.0688478 4.41798 0.329364L9.23235 5.43015L9.2353 5.4328C9.58755 5.80653 9.57603 6.38829 9.11267 6.73873V6.74257L6.97905 8.12089C6.13448 8.87086 6.87075 10.0513 7.73409 11.1917L11.8397 15.5335C13.7496 17.1847 14.7961 17.9475 15.71 17.4019L17.4843 15.6292C17.9188 15.3021 18.567 15.3422 18.9381 15.7379L23.7554 20.8387V20.8413C24.1059 21.2162 24.0929 21.7968 23.631 22.1497Z" fill="#555333"/>
</svg>
